<svg width="144" height="38" viewBox="0 0 144 38" fill="none" xmlns="http://www.w3.org/2000/svg">
<mask id="path-1-outside-1_86_18624" maskUnits="userSpaceOnUse" x="0" y="0" width="144" height="38" fill="black">
<rect fill="white" width="144" height="38"/>
<path d="M13.4091 16.6934H13.4C12.9419 16.8965 12.5213 17.1765 12.156 17.5213C12.1266 17.5462 12.099 17.5732 12.0734 17.602C12.0596 17.6165 12.047 17.6322 12.0359 17.6489C11.9483 17.7671 11.898 17.9093 11.8916 18.0567C11.8852 18.2042 11.923 18.3501 12.0001 18.4757C12.0771 18.6012 12.1899 18.7004 12.3237 18.7605C12.4575 18.8206 12.6061 18.8387 12.7503 18.8125C13.6972 18.7292 14.635 18.5353 15.5819 18.4286C16.5701 18.3166 17.5648 18.2619 18.4523 18.8607C19.85 19.8031 19.8564 20.9434 18.4691 21.8832C18.2911 22.0051 18.1046 22.1139 17.911 22.2086C17.0985 22.5991 16.2678 22.9648 15.4695 23.3892C14.5407 23.8825 13.5809 24.3498 12.7412 24.9759C12.5004 25.1449 12.3014 25.3676 12.1599 25.6267C12.0678 25.7847 12.0184 25.9642 12.0165 26.1474C12.0165 27.1328 13.506 27.9333 15.3442 27.9333C15.4269 27.9333 15.5083 27.9333 15.5883 27.9333H15.6116C15.7253 27.9255 15.8377 27.9151 15.9501 27.9034L16.1077 27.8851C19.0232 27.5428 21.1457 26.0628 22.5925 23.4842C23.2188 22.367 23.3869 21.0474 23.0608 19.807C22.7348 18.5667 21.9403 17.504 20.8473 16.8457C18.6163 15.479 15.7266 15.4543 13.4091 16.6934Z"/>
<path d="M24.18 29.0852C24.1801 28.8946 24.1303 28.7072 24.0356 28.5416C23.941 28.376 23.8047 28.238 23.6402 28.141C23.4757 28.044 23.2887 27.9915 23.0977 27.9887C22.9066 27.9859 22.7182 28.0328 22.5509 28.1249C15.5169 30.9179 11.9967 28.6542 11.736 28.4756C11.2567 28.1417 10.8141 27.7582 10.4156 27.3315C10.0953 26.9849 9.81348 26.6048 9.57511 26.1977C2.392 15.3855 6.28318 6.98321 6.28318 6.98321C6.43658 6.60812 6.62142 6.2466 6.83572 5.90251C7.62174 4.64708 8.80336 4.07502 9.94866 4.24327C11.9448 4.32352 13.5649 6.37103 13.7387 8.9699C13.7283 10.0907 13.1978 12.3246 9.8877 15.1202C9.73114 15.2598 9.61287 15.4369 9.54409 15.6348C9.47532 15.8328 9.45831 16.0449 9.49467 16.2513C9.53104 16.4576 9.61958 16.6512 9.75191 16.8139C9.88424 16.9765 10.056 17.1028 10.2509 17.1806L10.2976 17.1949C10.4316 17.2429 10.5729 17.2674 10.7152 17.2674C10.7984 17.2677 10.8815 17.2595 10.963 17.2428C11.3029 17.1661 11.6179 17.0049 11.8787 16.7743C13.657 15.3946 14.8541 13.5554 15.9216 11.6179C17.0189 9.62738 17.1668 7.51774 16.6441 5.34986C15.8516 2.05857 12.9786 0.34239 9.73724 1.23413C8.13278 1.67418 6.8046 2.6151 5.71636 3.85112C1.76812 8.34865 0.489219 13.646 1.17666 19.4818C1.29874 20.5282 1.51581 21.5614 1.82519 22.5686C1.8628 22.689 1.90042 22.8081 1.94063 22.9271C1.98732 23.0656 2.03531 23.2041 2.0846 23.34C2.1741 23.6131 4.38947 30.285 8.44019 31.9572L8.52449 32.0038C8.59285 32.044 8.66393 32.0795 8.73721 32.1099C10.4377 32.9162 12.5519 32.9848 14.574 32.7363C15.3042 32.6535 23.8051 31.6336 24.1605 29.3117C24.1605 29.2949 24.167 29.2781 24.1696 29.2612C24.1779 29.2029 24.1813 29.1441 24.18 29.0852Z"/>
<path d="M32.5878 32.8607C32.0481 32.8607 31.5453 32.7503 31.0792 32.5295C30.6254 32.3088 30.2636 31.9899 29.9938 31.5729C29.7239 31.1436 29.589 30.653 29.589 30.1011C29.589 29.1935 29.9447 28.4699 30.6561 27.9303C31.3797 27.3906 32.4344 27.1208 33.8204 27.1208H36.0464V26.9736C36.0464 26.1641 35.844 25.5816 35.4393 25.2259C35.0468 24.8702 34.4275 24.6924 33.5812 24.6924C33.1151 24.6924 32.6981 24.7292 32.3302 24.8028C31.9745 24.8763 31.5759 24.9867 31.1344 25.1339C31.0363 25.1584 30.9565 25.1707 30.8952 25.1707C30.7113 25.1707 30.5518 25.1032 30.4169 24.9683C30.282 24.8334 30.2145 24.6678 30.2145 24.4716C30.2145 24.1405 30.374 23.9074 30.6929 23.7725C31.7354 23.331 32.7963 23.1102 33.8755 23.1102C34.7218 23.1102 35.4332 23.2819 36.0096 23.6253C36.5983 23.9688 37.0276 24.4164 37.2974 24.9683C37.5795 25.508 37.7205 26.0967 37.7205 26.7344V31.9408C37.7205 32.1738 37.6347 32.3701 37.463 32.5295C37.3035 32.689 37.1073 32.7687 36.8743 32.7687C36.6412 32.7687 36.445 32.689 36.2856 32.5295C36.1261 32.3701 36.0464 32.1738 36.0464 31.9408V31.4625C35.1388 32.3946 33.9859 32.8607 32.5878 32.8607ZM33.2133 31.3889C33.7529 31.3889 34.2741 31.2601 34.777 31.0026C35.2799 30.7327 35.703 30.4016 36.0464 30.0091V28.4638H34.0411C32.1892 28.4638 31.2632 28.9482 31.2632 29.9171C31.2632 30.3587 31.4103 30.7143 31.7047 30.9842C32.0113 31.254 32.5142 31.3889 33.2133 31.3889Z"/>
<path d="M49.0259 32.8607C47.824 32.8607 46.7754 32.3946 45.88 31.4625V31.9408C45.88 32.1738 45.7942 32.3701 45.6225 32.5295C45.463 32.689 45.2668 32.7687 45.0338 32.7687C44.8008 32.7687 44.6045 32.689 44.4451 32.5295C44.2856 32.3701 44.2059 32.1738 44.2059 31.9408V20.0011C44.2059 19.7681 44.2856 19.5719 44.4451 19.4124C44.6045 19.2407 44.8008 19.1549 45.0338 19.1549C45.2791 19.1549 45.4814 19.2346 45.6409 19.394C45.8003 19.5535 45.88 19.7558 45.88 20.0011V24.5084C46.7754 23.5763 47.824 23.1102 49.0259 23.1102C49.7864 23.1102 50.5038 23.3065 51.1784 23.6989C51.8652 24.0791 52.4171 24.6433 52.8341 25.3915C53.2634 26.1273 53.478 26.992 53.478 27.9854C53.478 28.9789 53.2634 29.8497 52.8341 30.5978C52.4171 31.3337 51.8652 31.8979 51.1784 32.2904C50.5038 32.6706 49.7864 32.8607 49.0259 32.8607ZM48.7868 31.2969C49.6944 31.2969 50.4241 31.0087 50.976 30.4323C51.5279 29.8558 51.8039 29.0402 51.8039 27.9854C51.8039 26.9307 51.5279 26.1151 50.976 25.5386C50.4241 24.9622 49.6944 24.674 48.7868 24.674C48.2226 24.674 47.6891 24.8028 47.1862 25.0603C46.6957 25.3056 46.2603 25.6368 45.88 26.0538V29.9171C46.2603 30.3341 46.6957 30.6714 47.1862 30.929C47.6891 31.1743 48.2226 31.2969 48.7868 31.2969Z"/>
<path d="M61.4628 37C61.242 37 61.0519 36.9203 60.8925 36.7608C60.7453 36.6014 60.6717 36.4113 60.6717 36.1905C60.6717 36.0924 60.6901 35.9943 60.7269 35.8962L61.9227 32.8239L58.4641 24.398C58.415 24.2754 58.3905 24.1589 58.3905 24.0485C58.3905 23.8155 58.4702 23.6192 58.6296 23.4598C58.7891 23.2881 58.9853 23.2022 59.2183 23.2022C59.39 23.2022 59.5434 23.2513 59.6783 23.3494C59.8254 23.4475 59.9297 23.5702 59.991 23.7173L62.8242 30.745L65.7125 23.7541C65.8719 23.3862 66.1295 23.2022 66.4852 23.2022C66.7182 23.2022 66.9144 23.2881 67.0739 23.4598C67.2333 23.6192 67.313 23.8155 67.313 24.0485C67.313 24.1589 67.2946 24.2631 67.2578 24.3612L62.2355 36.4297C62.0637 36.8099 61.8062 37 61.4628 37Z"/>
<path d="M74.4531 32.7687C74.2201 32.7687 74.0238 32.689 73.8644 32.5295C73.705 32.3701 73.6252 32.1738 73.6252 31.9408V24.7292H72.5398C72.3436 24.7292 72.1719 24.6617 72.0247 24.5268C71.8898 24.3796 71.8223 24.2079 71.8223 24.0117C71.8223 23.8032 71.8898 23.6315 72.0247 23.4966C72.1719 23.3617 72.3436 23.2942 72.5398 23.2942H73.6252V22.2272C73.6252 21.4913 73.754 20.8903 74.0116 20.4243C74.2814 19.9459 74.6248 19.6025 75.0418 19.394C75.4711 19.1733 75.9187 19.0629 76.3848 19.0629C76.9612 19.0629 77.4947 19.1855 77.9853 19.4308C78.108 19.4921 78.2061 19.5841 78.2797 19.7068C78.3655 19.8172 78.4085 19.9398 78.4085 20.0747C78.4085 20.2587 78.341 20.4243 78.2061 20.5714C78.0712 20.7064 77.9117 20.7738 77.7278 20.7738C77.5929 20.7738 77.4518 20.7554 77.3046 20.7186C77.0103 20.6818 76.8447 20.6634 76.8079 20.6634C76.3051 20.6634 75.9249 20.7799 75.6673 21.013C75.422 21.246 75.2994 21.6691 75.2994 22.2824V23.2942H77.599C77.8075 23.2942 77.9792 23.3617 78.1141 23.4966C78.249 23.6315 78.3165 23.8032 78.3165 24.0117C78.3165 24.2079 78.249 24.3796 78.1141 24.5268C77.9792 24.6617 77.8075 24.7292 77.599 24.7292H75.2994V31.9408C75.2994 32.1738 75.2135 32.3701 75.0418 32.5295C74.8824 32.689 74.6861 32.7687 74.4531 32.7687Z"/>
<path d="M86.8313 32.8607C86.1567 32.8607 85.568 32.7012 85.0652 32.3823C84.5746 32.0635 84.1944 31.6281 83.9246 31.0762C83.667 30.5242 83.5382 29.9171 83.5382 29.2548V24.0301C83.5382 23.7971 83.6179 23.6008 83.7774 23.4414C83.9491 23.2819 84.1515 23.2022 84.3845 23.2022C84.6175 23.2022 84.8138 23.2819 84.9732 23.4414C85.1326 23.6008 85.2124 23.7971 85.2124 24.0301V29.0709C85.2124 30.5672 85.8869 31.3153 87.236 31.3153C87.8493 31.3153 88.395 31.1559 88.8734 30.837C89.3639 30.5181 89.8239 30.0888 90.2531 29.5492V24.0301C90.2531 23.7971 90.3329 23.6008 90.4923 23.4414C90.664 23.2819 90.8664 23.2022 91.0994 23.2022C91.3324 23.2022 91.5287 23.2819 91.6881 23.4414C91.8476 23.6008 91.9273 23.7971 91.9273 24.0301V31.9224C91.9273 32.1554 91.8476 32.3578 91.6881 32.5295C91.5287 32.689 91.3324 32.7687 91.0994 32.7687C90.8664 32.7687 90.664 32.689 90.4923 32.5295C90.3329 32.3578 90.2531 32.1554 90.2531 31.9224V31.1681C89.7871 31.6833 89.2842 32.0941 88.7446 32.4007C88.2049 32.7074 87.5672 32.8607 86.8313 32.8607Z"/>
<path d="M101.758 32.8607C99.9675 32.8607 99.0722 32.0512 99.0722 30.4323V24.7292H97.766C97.6679 24.7292 97.5821 24.6985 97.5085 24.6372C97.4471 24.5636 97.4165 24.4777 97.4165 24.3796C97.4165 24.257 97.4717 24.1527 97.5821 24.0669L100.084 21.6201C100.194 21.5097 100.299 21.4545 100.397 21.4545C100.495 21.4545 100.575 21.4913 100.636 21.5649C100.71 21.6385 100.746 21.7243 100.746 21.8224V23.2942H102.825C103.034 23.2942 103.205 23.3617 103.34 23.4966C103.475 23.6315 103.543 23.8032 103.543 24.0117C103.543 24.2079 103.475 24.3796 103.34 24.5268C103.205 24.6617 103.034 24.7292 102.825 24.7292H100.746V30.2851C100.746 30.7634 100.857 31.07 101.078 31.2049C101.311 31.3276 101.599 31.3889 101.942 31.3889C102.187 31.3889 102.433 31.3521 102.678 31.2785C102.727 31.2663 102.776 31.254 102.825 31.2417C102.887 31.2295 102.96 31.2233 103.046 31.2233C103.218 31.2233 103.371 31.2908 103.506 31.4257C103.641 31.5483 103.708 31.7017 103.708 31.8856C103.708 32.1677 103.567 32.3823 103.285 32.5295C102.807 32.7503 102.298 32.8607 101.758 32.8607Z"/>
<path d="M112.425 32.8607C111.751 32.8607 111.162 32.7012 110.659 32.3823C110.169 32.0635 109.789 31.6281 109.519 31.0762C109.261 30.5242 109.132 29.9171 109.132 29.2548V24.0301C109.132 23.7971 109.212 23.6008 109.372 23.4414C109.543 23.2819 109.746 23.2022 109.979 23.2022C110.212 23.2022 110.408 23.2819 110.567 23.4414C110.727 23.6008 110.807 23.7971 110.807 24.0301V29.0709C110.807 30.5672 111.481 31.3153 112.83 31.3153C113.443 31.3153 113.989 31.1559 114.468 30.837C114.958 30.5181 115.418 30.0888 115.847 29.5492V24.0301C115.847 23.7971 115.927 23.6008 116.086 23.4414C116.258 23.2819 116.461 23.2022 116.694 23.2022C116.927 23.2022 117.123 23.2819 117.282 23.4414C117.442 23.6008 117.521 23.7971 117.521 24.0301V31.9224C117.521 32.1554 117.442 32.3578 117.282 32.5295C117.123 32.689 116.927 32.7687 116.694 32.7687C116.461 32.7687 116.258 32.689 116.086 32.5295C115.927 32.3578 115.847 32.1554 115.847 31.9224V31.1681C115.381 31.6833 114.878 32.0941 114.339 32.4007C113.799 32.7074 113.161 32.8607 112.425 32.8607Z"/>
<path d="M124.942 32.7687C124.709 32.7687 124.513 32.689 124.354 32.5295C124.194 32.3701 124.114 32.1738 124.114 31.9408V24.0485C124.114 23.8155 124.194 23.6192 124.354 23.4598C124.513 23.2881 124.709 23.2022 124.942 23.2022C125.175 23.2022 125.372 23.2881 125.531 23.4598C125.703 23.6192 125.789 23.8155 125.789 24.0485V24.8396C126.647 23.6867 127.61 23.1102 128.677 23.1102H128.769C129.002 23.1102 129.192 23.19 129.339 23.3494C129.499 23.5088 129.578 23.7051 129.578 23.9381C129.578 24.1711 129.499 24.3612 129.339 24.5084C129.18 24.6556 128.977 24.7292 128.732 24.7292H128.64C128.051 24.7292 127.512 24.8763 127.021 25.1707C126.531 25.4528 126.12 25.8453 125.789 26.3481V31.9408C125.789 32.1738 125.703 32.3701 125.531 32.5295C125.372 32.689 125.175 32.7687 124.942 32.7687Z"/>
<path d="M138.762 32.8607C137.265 32.8607 136.094 32.4375 135.248 31.5913C134.414 30.7327 133.997 29.5308 133.997 27.9854C133.997 27.1147 134.156 26.3113 134.475 25.5754C134.794 24.8396 135.285 24.2447 135.947 23.7909C136.609 23.3371 137.425 23.1102 138.394 23.1102C139.301 23.1102 140.086 23.3249 140.748 23.7541C141.411 24.1711 141.914 24.7353 142.257 25.4467C142.6 26.1457 142.772 26.9123 142.772 27.7463C142.772 27.9793 142.692 28.1755 142.533 28.335C142.386 28.4944 142.183 28.5742 141.926 28.5742H135.689C135.787 29.4327 136.106 30.1011 136.646 30.5794C137.186 31.0578 137.94 31.2969 138.909 31.2969C139.424 31.2969 139.871 31.2479 140.252 31.1497C140.644 31.0516 141.024 30.9106 141.392 30.7266C141.49 30.6775 141.601 30.653 141.723 30.653C141.92 30.653 142.091 30.7205 142.239 30.8554C142.386 30.9903 142.459 31.162 142.459 31.3705C142.459 31.6403 142.3 31.8672 141.981 32.0512C141.503 32.321 141.031 32.5234 140.564 32.6583C140.098 32.7932 139.497 32.8607 138.762 32.8607ZM141.116 27.2128C141.08 26.6118 140.92 26.1089 140.638 25.7042C140.368 25.2995 140.031 25.0051 139.626 24.8212C139.221 24.6249 138.811 24.5268 138.394 24.5268C137.977 24.5268 137.566 24.6249 137.161 24.8212C136.756 25.0051 136.419 25.2995 136.149 25.7042C135.879 26.1089 135.726 26.6118 135.689 27.2128H141.116Z"/>
</mask>
<path d="M13.4091 16.6934H13.4C12.9419 16.8965 12.5213 17.1765 12.156 17.5213C12.1266 17.5462 12.099 17.5732 12.0734 17.602C12.0596 17.6165 12.047 17.6322 12.0359 17.6489C11.9483 17.7671 11.898 17.9093 11.8916 18.0567C11.8852 18.2042 11.923 18.3501 12.0001 18.4757C12.0771 18.6012 12.1899 18.7004 12.3237 18.7605C12.4575 18.8206 12.6061 18.8387 12.7503 18.8125C13.6972 18.7292 14.635 18.5353 15.5819 18.4286C16.5701 18.3166 17.5648 18.2619 18.4523 18.8607C19.85 19.8031 19.8564 20.9434 18.4691 21.8832C18.2911 22.0051 18.1046 22.1139 17.911 22.2086C17.0985 22.5991 16.2678 22.9648 15.4695 23.3892C14.5407 23.8825 13.5809 24.3498 12.7412 24.9759C12.5004 25.1449 12.3014 25.3676 12.1599 25.6267C12.0678 25.7847 12.0184 25.9642 12.0165 26.1474C12.0165 27.1328 13.506 27.9333 15.3442 27.9333C15.4269 27.9333 15.5083 27.9333 15.5883 27.9333H15.6116C15.7253 27.9255 15.8377 27.9151 15.9501 27.9034L16.1077 27.8851C19.0232 27.5428 21.1457 26.0628 22.5925 23.4842C23.2188 22.367 23.3869 21.0474 23.0608 19.807C22.7348 18.5667 21.9403 17.504 20.8473 16.8457C18.6163 15.479 15.7266 15.4543 13.4091 16.6934Z" fill="#F9FAFB"/>
<path d="M24.18 29.0852C24.1801 28.8946 24.1303 28.7072 24.0356 28.5416C23.941 28.376 23.8047 28.238 23.6402 28.141C23.4757 28.044 23.2887 27.9915 23.0977 27.9887C22.9066 27.9859 22.7182 28.0328 22.5509 28.1249C15.5169 30.9179 11.9967 28.6542 11.736 28.4756C11.2567 28.1417 10.8141 27.7582 10.4156 27.3315C10.0953 26.9849 9.81348 26.6048 9.57511 26.1977C2.392 15.3855 6.28318 6.98321 6.28318 6.98321C6.43658 6.60812 6.62142 6.2466 6.83572 5.90251C7.62174 4.64708 8.80336 4.07502 9.94866 4.24327C11.9448 4.32352 13.5649 6.37103 13.7387 8.9699C13.7283 10.0907 13.1978 12.3246 9.8877 15.1202C9.73114 15.2598 9.61287 15.4369 9.54409 15.6348C9.47532 15.8328 9.45831 16.0449 9.49467 16.2513C9.53104 16.4576 9.61958 16.6512 9.75191 16.8139C9.88424 16.9765 10.056 17.1028 10.2509 17.1806L10.2976 17.1949C10.4316 17.2429 10.5729 17.2674 10.7152 17.2674C10.7984 17.2677 10.8815 17.2595 10.963 17.2428C11.3029 17.1661 11.6179 17.0049 11.8787 16.7743C13.657 15.3946 14.8541 13.5554 15.9216 11.6179C17.0189 9.62738 17.1668 7.51774 16.6441 5.34986C15.8516 2.05857 12.9786 0.34239 9.73724 1.23413C8.13278 1.67418 6.8046 2.6151 5.71636 3.85112C1.76812 8.34865 0.489219 13.646 1.17666 19.4818C1.29874 20.5282 1.51581 21.5614 1.82519 22.5686C1.8628 22.689 1.90042 22.8081 1.94063 22.9271C1.98732 23.0656 2.03531 23.2041 2.0846 23.34C2.1741 23.6131 4.38947 30.285 8.44019 31.9572L8.52449 32.0038C8.59285 32.044 8.66393 32.0795 8.73721 32.1099C10.4377 32.9162 12.5519 32.9848 14.574 32.7363C15.3042 32.6535 23.8051 31.6336 24.1605 29.3117C24.1605 29.2949 24.167 29.2781 24.1696 29.2612C24.1779 29.2029 24.1813 29.1441 24.18 29.0852Z" fill="#F9FAFB"/>
<path d="M32.5878 32.8607C32.0481 32.8607 31.5453 32.7503 31.0792 32.5295C30.6254 32.3088 30.2636 31.9899 29.9938 31.5729C29.7239 31.1436 29.589 30.653 29.589 30.1011C29.589 29.1935 29.9447 28.4699 30.6561 27.9303C31.3797 27.3906 32.4344 27.1208 33.8204 27.1208H36.0464V26.9736C36.0464 26.1641 35.844 25.5816 35.4393 25.2259C35.0468 24.8702 34.4275 24.6924 33.5812 24.6924C33.1151 24.6924 32.6981 24.7292 32.3302 24.8028C31.9745 24.8763 31.5759 24.9867 31.1344 25.1339C31.0363 25.1584 30.9565 25.1707 30.8952 25.1707C30.7113 25.1707 30.5518 25.1032 30.4169 24.9683C30.282 24.8334 30.2145 24.6678 30.2145 24.4716C30.2145 24.1405 30.374 23.9074 30.6929 23.7725C31.7354 23.331 32.7963 23.1102 33.8755 23.1102C34.7218 23.1102 35.4332 23.2819 36.0096 23.6253C36.5983 23.9688 37.0276 24.4164 37.2974 24.9683C37.5795 25.508 37.7205 26.0967 37.7205 26.7344V31.9408C37.7205 32.1738 37.6347 32.3701 37.463 32.5295C37.3035 32.689 37.1073 32.7687 36.8743 32.7687C36.6412 32.7687 36.445 32.689 36.2856 32.5295C36.1261 32.3701 36.0464 32.1738 36.0464 31.9408V31.4625C35.1388 32.3946 33.9859 32.8607 32.5878 32.8607ZM33.2133 31.3889C33.7529 31.3889 34.2741 31.2601 34.777 31.0026C35.2799 30.7327 35.703 30.4016 36.0464 30.0091V28.4638H34.0411C32.1892 28.4638 31.2632 28.9482 31.2632 29.9171C31.2632 30.3587 31.4103 30.7143 31.7047 30.9842C32.0113 31.254 32.5142 31.3889 33.2133 31.3889Z" fill="#F9FAFB"/>
<path d="M49.0259 32.8607C47.824 32.8607 46.7754 32.3946 45.88 31.4625V31.9408C45.88 32.1738 45.7942 32.3701 45.6225 32.5295C45.463 32.689 45.2668 32.7687 45.0338 32.7687C44.8008 32.7687 44.6045 32.689 44.4451 32.5295C44.2856 32.3701 44.2059 32.1738 44.2059 31.9408V20.0011C44.2059 19.7681 44.2856 19.5719 44.4451 19.4124C44.6045 19.2407 44.8008 19.1549 45.0338 19.1549C45.2791 19.1549 45.4814 19.2346 45.6409 19.394C45.8003 19.5535 45.88 19.7558 45.88 20.0011V24.5084C46.7754 23.5763 47.824 23.1102 49.0259 23.1102C49.7864 23.1102 50.5038 23.3065 51.1784 23.6989C51.8652 24.0791 52.4171 24.6433 52.8341 25.3915C53.2634 26.1273 53.478 26.992 53.478 27.9854C53.478 28.9789 53.2634 29.8497 52.8341 30.5978C52.4171 31.3337 51.8652 31.8979 51.1784 32.2904C50.5038 32.6706 49.7864 32.8607 49.0259 32.8607ZM48.7868 31.2969C49.6944 31.2969 50.4241 31.0087 50.976 30.4323C51.5279 29.8558 51.8039 29.0402 51.8039 27.9854C51.8039 26.9307 51.5279 26.1151 50.976 25.5386C50.4241 24.9622 49.6944 24.674 48.7868 24.674C48.2226 24.674 47.6891 24.8028 47.1862 25.0603C46.6957 25.3056 46.2603 25.6368 45.88 26.0538V29.9171C46.2603 30.3341 46.6957 30.6714 47.1862 30.929C47.6891 31.1743 48.2226 31.2969 48.7868 31.2969Z" fill="#F9FAFB"/>
<path d="M61.4628 37C61.242 37 61.0519 36.9203 60.8925 36.7608C60.7453 36.6014 60.6717 36.4113 60.6717 36.1905C60.6717 36.0924 60.6901 35.9943 60.7269 35.8962L61.9227 32.8239L58.4641 24.398C58.415 24.2754 58.3905 24.1589 58.3905 24.0485C58.3905 23.8155 58.4702 23.6192 58.6296 23.4598C58.7891 23.2881 58.9853 23.2022 59.2183 23.2022C59.39 23.2022 59.5434 23.2513 59.6783 23.3494C59.8254 23.4475 59.9297 23.5702 59.991 23.7173L62.8242 30.745L65.7125 23.7541C65.8719 23.3862 66.1295 23.2022 66.4852 23.2022C66.7182 23.2022 66.9144 23.2881 67.0739 23.4598C67.2333 23.6192 67.313 23.8155 67.313 24.0485C67.313 24.1589 67.2946 24.2631 67.2578 24.3612L62.2355 36.4297C62.0637 36.8099 61.8062 37 61.4628 37Z" fill="#F9FAFB"/>
<path d="M74.4531 32.7687C74.2201 32.7687 74.0238 32.689 73.8644 32.5295C73.705 32.3701 73.6252 32.1738 73.6252 31.9408V24.7292H72.5398C72.3436 24.7292 72.1719 24.6617 72.0247 24.5268C71.8898 24.3796 71.8223 24.2079 71.8223 24.0117C71.8223 23.8032 71.8898 23.6315 72.0247 23.4966C72.1719 23.3617 72.3436 23.2942 72.5398 23.2942H73.6252V22.2272C73.6252 21.4913 73.754 20.8903 74.0116 20.4243C74.2814 19.9459 74.6248 19.6025 75.0418 19.394C75.4711 19.1733 75.9187 19.0629 76.3848 19.0629C76.9612 19.0629 77.4947 19.1855 77.9853 19.4308C78.108 19.4921 78.2061 19.5841 78.2797 19.7068C78.3655 19.8172 78.4085 19.9398 78.4085 20.0747C78.4085 20.2587 78.341 20.4243 78.2061 20.5714C78.0712 20.7064 77.9117 20.7738 77.7278 20.7738C77.5929 20.7738 77.4518 20.7554 77.3046 20.7186C77.0103 20.6818 76.8447 20.6634 76.8079 20.6634C76.3051 20.6634 75.9249 20.7799 75.6673 21.013C75.422 21.246 75.2994 21.6691 75.2994 22.2824V23.2942H77.599C77.8075 23.2942 77.9792 23.3617 78.1141 23.4966C78.249 23.6315 78.3165 23.8032 78.3165 24.0117C78.3165 24.2079 78.249 24.3796 78.1141 24.5268C77.9792 24.6617 77.8075 24.7292 77.599 24.7292H75.2994V31.9408C75.2994 32.1738 75.2135 32.3701 75.0418 32.5295C74.8824 32.689 74.6861 32.7687 74.4531 32.7687Z" fill="#F9FAFB"/>
<path d="M86.8313 32.8607C86.1567 32.8607 85.568 32.7012 85.0652 32.3823C84.5746 32.0635 84.1944 31.6281 83.9246 31.0762C83.667 30.5242 83.5382 29.9171 83.5382 29.2548V24.0301C83.5382 23.7971 83.6179 23.6008 83.7774 23.4414C83.9491 23.2819 84.1515 23.2022 84.3845 23.2022C84.6175 23.2022 84.8138 23.2819 84.9732 23.4414C85.1326 23.6008 85.2124 23.7971 85.2124 24.0301V29.0709C85.2124 30.5672 85.8869 31.3153 87.236 31.3153C87.8493 31.3153 88.395 31.1559 88.8734 30.837C89.3639 30.5181 89.8239 30.0888 90.2531 29.5492V24.0301C90.2531 23.7971 90.3329 23.6008 90.4923 23.4414C90.664 23.2819 90.8664 23.2022 91.0994 23.2022C91.3324 23.2022 91.5287 23.2819 91.6881 23.4414C91.8476 23.6008 91.9273 23.7971 91.9273 24.0301V31.9224C91.9273 32.1554 91.8476 32.3578 91.6881 32.5295C91.5287 32.689 91.3324 32.7687 91.0994 32.7687C90.8664 32.7687 90.664 32.689 90.4923 32.5295C90.3329 32.3578 90.2531 32.1554 90.2531 31.9224V31.1681C89.7871 31.6833 89.2842 32.0941 88.7446 32.4007C88.2049 32.7074 87.5672 32.8607 86.8313 32.8607Z" fill="#F9FAFB"/>
<path d="M101.758 32.8607C99.9675 32.8607 99.0722 32.0512 99.0722 30.4323V24.7292H97.766C97.6679 24.7292 97.5821 24.6985 97.5085 24.6372C97.4471 24.5636 97.4165 24.4777 97.4165 24.3796C97.4165 24.257 97.4717 24.1527 97.5821 24.0669L100.084 21.6201C100.194 21.5097 100.299 21.4545 100.397 21.4545C100.495 21.4545 100.575 21.4913 100.636 21.5649C100.71 21.6385 100.746 21.7243 100.746 21.8224V23.2942H102.825C103.034 23.2942 103.205 23.3617 103.34 23.4966C103.475 23.6315 103.543 23.8032 103.543 24.0117C103.543 24.2079 103.475 24.3796 103.34 24.5268C103.205 24.6617 103.034 24.7292 102.825 24.7292H100.746V30.2851C100.746 30.7634 100.857 31.07 101.078 31.2049C101.311 31.3276 101.599 31.3889 101.942 31.3889C102.187 31.3889 102.433 31.3521 102.678 31.2785C102.727 31.2663 102.776 31.254 102.825 31.2417C102.887 31.2295 102.96 31.2233 103.046 31.2233C103.218 31.2233 103.371 31.2908 103.506 31.4257C103.641 31.5483 103.708 31.7017 103.708 31.8856C103.708 32.1677 103.567 32.3823 103.285 32.5295C102.807 32.7503 102.298 32.8607 101.758 32.8607Z" fill="#F9FAFB"/>
<path d="M112.425 32.8607C111.751 32.8607 111.162 32.7012 110.659 32.3823C110.169 32.0635 109.789 31.6281 109.519 31.0762C109.261 30.5242 109.132 29.9171 109.132 29.2548V24.0301C109.132 23.7971 109.212 23.6008 109.372 23.4414C109.543 23.2819 109.746 23.2022 109.979 23.2022C110.212 23.2022 110.408 23.2819 110.567 23.4414C110.727 23.6008 110.807 23.7971 110.807 24.0301V29.0709C110.807 30.5672 111.481 31.3153 112.83 31.3153C113.443 31.3153 113.989 31.1559 114.468 30.837C114.958 30.5181 115.418 30.0888 115.847 29.5492V24.0301C115.847 23.7971 115.927 23.6008 116.086 23.4414C116.258 23.2819 116.461 23.2022 116.694 23.2022C116.927 23.2022 117.123 23.2819 117.282 23.4414C117.442 23.6008 117.521 23.7971 117.521 24.0301V31.9224C117.521 32.1554 117.442 32.3578 117.282 32.5295C117.123 32.689 116.927 32.7687 116.694 32.7687C116.461 32.7687 116.258 32.689 116.086 32.5295C115.927 32.3578 115.847 32.1554 115.847 31.9224V31.1681C115.381 31.6833 114.878 32.0941 114.339 32.4007C113.799 32.7074 113.161 32.8607 112.425 32.8607Z" fill="#F9FAFB"/>
<path d="M124.942 32.7687C124.709 32.7687 124.513 32.689 124.354 32.5295C124.194 32.3701 124.114 32.1738 124.114 31.9408V24.0485C124.114 23.8155 124.194 23.6192 124.354 23.4598C124.513 23.2881 124.709 23.2022 124.942 23.2022C125.175 23.2022 125.372 23.2881 125.531 23.4598C125.703 23.6192 125.789 23.8155 125.789 24.0485V24.8396C126.647 23.6867 127.61 23.1102 128.677 23.1102H128.769C129.002 23.1102 129.192 23.19 129.339 23.3494C129.499 23.5088 129.578 23.7051 129.578 23.9381C129.578 24.1711 129.499 24.3612 129.339 24.5084C129.18 24.6556 128.977 24.7292 128.732 24.7292H128.64C128.051 24.7292 127.512 24.8763 127.021 25.1707C126.531 25.4528 126.12 25.8453 125.789 26.3481V31.9408C125.789 32.1738 125.703 32.3701 125.531 32.5295C125.372 32.689 125.175 32.7687 124.942 32.7687Z" fill="#F9FAFB"/>
<path d="M138.762 32.8607C137.265 32.8607 136.094 32.4375 135.248 31.5913C134.414 30.7327 133.997 29.5308 133.997 27.9854C133.997 27.1147 134.156 26.3113 134.475 25.5754C134.794 24.8396 135.285 24.2447 135.947 23.7909C136.609 23.3371 137.425 23.1102 138.394 23.1102C139.301 23.1102 140.086 23.3249 140.748 23.7541C141.411 24.1711 141.914 24.7353 142.257 25.4467C142.6 26.1457 142.772 26.9123 142.772 27.7463C142.772 27.9793 142.692 28.1755 142.533 28.335C142.386 28.4944 142.183 28.5742 141.926 28.5742H135.689C135.787 29.4327 136.106 30.1011 136.646 30.5794C137.186 31.0578 137.94 31.2969 138.909 31.2969C139.424 31.2969 139.871 31.2479 140.252 31.1497C140.644 31.0516 141.024 30.9106 141.392 30.7266C141.49 30.6775 141.601 30.653 141.723 30.653C141.92 30.653 142.091 30.7205 142.239 30.8554C142.386 30.9903 142.459 31.162 142.459 31.3705C142.459 31.6403 142.3 31.8672 141.981 32.0512C141.503 32.321 141.031 32.5234 140.564 32.6583C140.098 32.7932 139.497 32.8607 138.762 32.8607ZM141.116 27.2128C141.08 26.6118 140.92 26.1089 140.638 25.7042C140.368 25.2995 140.031 25.0051 139.626 24.8212C139.221 24.6249 138.811 24.5268 138.394 24.5268C137.977 24.5268 137.566 24.6249 137.161 24.8212C136.756 25.0051 136.419 25.2995 136.149 25.7042C135.879 26.1089 135.726 26.6118 135.689 27.2128H141.116Z" fill="#F9FAFB"/>
<path d="M13.4091 16.6934H13.4C12.9419 16.8965 12.5213 17.1765 12.156 17.5213C12.1266 17.5462 12.099 17.5732 12.0734 17.602C12.0596 17.6165 12.047 17.6322 12.0359 17.6489C11.9483 17.7671 11.898 17.9093 11.8916 18.0567C11.8852 18.2042 11.923 18.3501 12.0001 18.4757C12.0771 18.6012 12.1899 18.7004 12.3237 18.7605C12.4575 18.8206 12.6061 18.8387 12.7503 18.8125C13.6972 18.7292 14.635 18.5353 15.5819 18.4286C16.5701 18.3166 17.5648 18.2619 18.4523 18.8607C19.85 19.8031 19.8564 20.9434 18.4691 21.8832C18.2911 22.0051 18.1046 22.1139 17.911 22.2086C17.0985 22.5991 16.2678 22.9648 15.4695 23.3892C14.5407 23.8825 13.5809 24.3498 12.7412 24.9759C12.5004 25.1449 12.3014 25.3676 12.1599 25.6267C12.0678 25.7847 12.0184 25.9642 12.0165 26.1474C12.0165 27.1328 13.506 27.9333 15.3442 27.9333C15.4269 27.9333 15.5083 27.9333 15.5883 27.9333H15.6116C15.7253 27.9255 15.8377 27.9151 15.9501 27.9034L16.1077 27.8851C19.0232 27.5428 21.1457 26.0628 22.5925 23.4842C23.2188 22.367 23.3869 21.0474 23.0608 19.807C22.7348 18.5667 21.9403 17.504 20.8473 16.8457C18.6163 15.479 15.7266 15.4543 13.4091 16.6934Z" stroke="#0AB2BF" stroke-width="1.03722" mask="url(#path-1-outside-1_86_18624)"/>
<path d="M24.18 29.0852C24.1801 28.8946 24.1303 28.7072 24.0356 28.5416C23.941 28.376 23.8047 28.238 23.6402 28.141C23.4757 28.044 23.2887 27.9915 23.0977 27.9887C22.9066 27.9859 22.7182 28.0328 22.5509 28.1249C15.5169 30.9179 11.9967 28.6542 11.736 28.4756C11.2567 28.1417 10.8141 27.7582 10.4156 27.3315C10.0953 26.9849 9.81348 26.6048 9.57511 26.1977C2.392 15.3855 6.28318 6.98321 6.28318 6.98321C6.43658 6.60812 6.62142 6.2466 6.83572 5.90251C7.62174 4.64708 8.80336 4.07502 9.94866 4.24327C11.9448 4.32352 13.5649 6.37103 13.7387 8.9699C13.7283 10.0907 13.1978 12.3246 9.8877 15.1202C9.73114 15.2598 9.61287 15.4369 9.54409 15.6348C9.47532 15.8328 9.45831 16.0449 9.49467 16.2513C9.53104 16.4576 9.61958 16.6512 9.75191 16.8139C9.88424 16.9765 10.056 17.1028 10.2509 17.1806L10.2976 17.1949C10.4316 17.2429 10.5729 17.2674 10.7152 17.2674C10.7984 17.2677 10.8815 17.2595 10.963 17.2428C11.3029 17.1661 11.6179 17.0049 11.8787 16.7743C13.657 15.3946 14.8541 13.5554 15.9216 11.6179C17.0189 9.62738 17.1668 7.51774 16.6441 5.34986C15.8516 2.05857 12.9786 0.34239 9.73724 1.23413C8.13278 1.67418 6.8046 2.6151 5.71636 3.85112C1.76812 8.34865 0.489219 13.646 1.17666 19.4818C1.29874 20.5282 1.51581 21.5614 1.82519 22.5686C1.8628 22.689 1.90042 22.8081 1.94063 22.9271C1.98732 23.0656 2.03531 23.2041 2.0846 23.34C2.1741 23.6131 4.38947 30.285 8.44019 31.9572L8.52449 32.0038C8.59285 32.044 8.66393 32.0795 8.73721 32.1099C10.4377 32.9162 12.5519 32.9848 14.574 32.7363C15.3042 32.6535 23.8051 31.6336 24.1605 29.3117C24.1605 29.2949 24.167 29.2781 24.1696 29.2612C24.1779 29.2029 24.1813 29.1441 24.18 29.0852Z" stroke="#0AB2BF" stroke-width="1.03722" mask="url(#path-1-outside-1_86_18624)"/>
<path d="M32.5878 32.8607C32.0481 32.8607 31.5453 32.7503 31.0792 32.5295C30.6254 32.3088 30.2636 31.9899 29.9938 31.5729C29.7239 31.1436 29.589 30.653 29.589 30.1011C29.589 29.1935 29.9447 28.4699 30.6561 27.9303C31.3797 27.3906 32.4344 27.1208 33.8204 27.1208H36.0464V26.9736C36.0464 26.1641 35.844 25.5816 35.4393 25.2259C35.0468 24.8702 34.4275 24.6924 33.5812 24.6924C33.1151 24.6924 32.6981 24.7292 32.3302 24.8028C31.9745 24.8763 31.5759 24.9867 31.1344 25.1339C31.0363 25.1584 30.9565 25.1707 30.8952 25.1707C30.7113 25.1707 30.5518 25.1032 30.4169 24.9683C30.282 24.8334 30.2145 24.6678 30.2145 24.4716C30.2145 24.1405 30.374 23.9074 30.6929 23.7725C31.7354 23.331 32.7963 23.1102 33.8755 23.1102C34.7218 23.1102 35.4332 23.2819 36.0096 23.6253C36.5983 23.9688 37.0276 24.4164 37.2974 24.9683C37.5795 25.508 37.7205 26.0967 37.7205 26.7344V31.9408C37.7205 32.1738 37.6347 32.3701 37.463 32.5295C37.3035 32.689 37.1073 32.7687 36.8743 32.7687C36.6412 32.7687 36.445 32.689 36.2856 32.5295C36.1261 32.3701 36.0464 32.1738 36.0464 31.9408V31.4625C35.1388 32.3946 33.9859 32.8607 32.5878 32.8607ZM33.2133 31.3889C33.7529 31.3889 34.2741 31.2601 34.777 31.0026C35.2799 30.7327 35.703 30.4016 36.0464 30.0091V28.4638H34.0411C32.1892 28.4638 31.2632 28.9482 31.2632 29.9171C31.2632 30.3587 31.4103 30.7143 31.7047 30.9842C32.0113 31.254 32.5142 31.3889 33.2133 31.3889Z" stroke="#0AB2BF" stroke-width="1.03722" mask="url(#path-1-outside-1_86_18624)"/>
<path d="M49.0259 32.8607C47.824 32.8607 46.7754 32.3946 45.88 31.4625V31.9408C45.88 32.1738 45.7942 32.3701 45.6225 32.5295C45.463 32.689 45.2668 32.7687 45.0338 32.7687C44.8008 32.7687 44.6045 32.689 44.4451 32.5295C44.2856 32.3701 44.2059 32.1738 44.2059 31.9408V20.0011C44.2059 19.7681 44.2856 19.5719 44.4451 19.4124C44.6045 19.2407 44.8008 19.1549 45.0338 19.1549C45.2791 19.1549 45.4814 19.2346 45.6409 19.394C45.8003 19.5535 45.88 19.7558 45.88 20.0011V24.5084C46.7754 23.5763 47.824 23.1102 49.0259 23.1102C49.7864 23.1102 50.5038 23.3065 51.1784 23.6989C51.8652 24.0791 52.4171 24.6433 52.8341 25.3915C53.2634 26.1273 53.478 26.992 53.478 27.9854C53.478 28.9789 53.2634 29.8497 52.8341 30.5978C52.4171 31.3337 51.8652 31.8979 51.1784 32.2904C50.5038 32.6706 49.7864 32.8607 49.0259 32.8607ZM48.7868 31.2969C49.6944 31.2969 50.4241 31.0087 50.976 30.4323C51.5279 29.8558 51.8039 29.0402 51.8039 27.9854C51.8039 26.9307 51.5279 26.1151 50.976 25.5386C50.4241 24.9622 49.6944 24.674 48.7868 24.674C48.2226 24.674 47.6891 24.8028 47.1862 25.0603C46.6957 25.3056 46.2603 25.6368 45.88 26.0538V29.9171C46.2603 30.3341 46.6957 30.6714 47.1862 30.929C47.6891 31.1743 48.2226 31.2969 48.7868 31.2969Z" stroke="#0AB2BF" stroke-width="1.03722" mask="url(#path-1-outside-1_86_18624)"/>
<path d="M61.4628 37C61.242 37 61.0519 36.9203 60.8925 36.7608C60.7453 36.6014 60.6717 36.4113 60.6717 36.1905C60.6717 36.0924 60.6901 35.9943 60.7269 35.8962L61.9227 32.8239L58.4641 24.398C58.415 24.2754 58.3905 24.1589 58.3905 24.0485C58.3905 23.8155 58.4702 23.6192 58.6296 23.4598C58.7891 23.2881 58.9853 23.2022 59.2183 23.2022C59.39 23.2022 59.5434 23.2513 59.6783 23.3494C59.8254 23.4475 59.9297 23.5702 59.991 23.7173L62.8242 30.745L65.7125 23.7541C65.8719 23.3862 66.1295 23.2022 66.4852 23.2022C66.7182 23.2022 66.9144 23.2881 67.0739 23.4598C67.2333 23.6192 67.313 23.8155 67.313 24.0485C67.313 24.1589 67.2946 24.2631 67.2578 24.3612L62.2355 36.4297C62.0637 36.8099 61.8062 37 61.4628 37Z" stroke="#0AB2BF" stroke-width="1.03722" mask="url(#path-1-outside-1_86_18624)"/>
<path d="M74.4531 32.7687C74.2201 32.7687 74.0238 32.689 73.8644 32.5295C73.705 32.3701 73.6252 32.1738 73.6252 31.9408V24.7292H72.5398C72.3436 24.7292 72.1719 24.6617 72.0247 24.5268C71.8898 24.3796 71.8223 24.2079 71.8223 24.0117C71.8223 23.8032 71.8898 23.6315 72.0247 23.4966C72.1719 23.3617 72.3436 23.2942 72.5398 23.2942H73.6252V22.2272C73.6252 21.4913 73.754 20.8903 74.0116 20.4243C74.2814 19.9459 74.6248 19.6025 75.0418 19.394C75.4711 19.1733 75.9187 19.0629 76.3848 19.0629C76.9612 19.0629 77.4947 19.1855 77.9853 19.4308C78.108 19.4921 78.2061 19.5841 78.2797 19.7068C78.3655 19.8172 78.4085 19.9398 78.4085 20.0747C78.4085 20.2587 78.341 20.4243 78.2061 20.5714C78.0712 20.7064 77.9117 20.7738 77.7278 20.7738C77.5929 20.7738 77.4518 20.7554 77.3046 20.7186C77.0103 20.6818 76.8447 20.6634 76.8079 20.6634C76.3051 20.6634 75.9249 20.7799 75.6673 21.013C75.422 21.246 75.2994 21.6691 75.2994 22.2824V23.2942H77.599C77.8075 23.2942 77.9792 23.3617 78.1141 23.4966C78.249 23.6315 78.3165 23.8032 78.3165 24.0117C78.3165 24.2079 78.249 24.3796 78.1141 24.5268C77.9792 24.6617 77.8075 24.7292 77.599 24.7292H75.2994V31.9408C75.2994 32.1738 75.2135 32.3701 75.0418 32.5295C74.8824 32.689 74.6861 32.7687 74.4531 32.7687Z" stroke="#0AB2BF" stroke-width="1.03722" mask="url(#path-1-outside-1_86_18624)"/>
<path d="M86.8313 32.8607C86.1567 32.8607 85.568 32.7012 85.0652 32.3823C84.5746 32.0635 84.1944 31.6281 83.9246 31.0762C83.667 30.5242 83.5382 29.9171 83.5382 29.2548V24.0301C83.5382 23.7971 83.6179 23.6008 83.7774 23.4414C83.9491 23.2819 84.1515 23.2022 84.3845 23.2022C84.6175 23.2022 84.8138 23.2819 84.9732 23.4414C85.1326 23.6008 85.2124 23.7971 85.2124 24.0301V29.0709C85.2124 30.5672 85.8869 31.3153 87.236 31.3153C87.8493 31.3153 88.395 31.1559 88.8734 30.837C89.3639 30.5181 89.8239 30.0888 90.2531 29.5492V24.0301C90.2531 23.7971 90.3329 23.6008 90.4923 23.4414C90.664 23.2819 90.8664 23.2022 91.0994 23.2022C91.3324 23.2022 91.5287 23.2819 91.6881 23.4414C91.8476 23.6008 91.9273 23.7971 91.9273 24.0301V31.9224C91.9273 32.1554 91.8476 32.3578 91.6881 32.5295C91.5287 32.689 91.3324 32.7687 91.0994 32.7687C90.8664 32.7687 90.664 32.689 90.4923 32.5295C90.3329 32.3578 90.2531 32.1554 90.2531 31.9224V31.1681C89.7871 31.6833 89.2842 32.0941 88.7446 32.4007C88.2049 32.7074 87.5672 32.8607 86.8313 32.8607Z" stroke="#0AB2BF" stroke-width="1.03722" mask="url(#path-1-outside-1_86_18624)"/>
<path d="M101.758 32.8607C99.9675 32.8607 99.0722 32.0512 99.0722 30.4323V24.7292H97.766C97.6679 24.7292 97.5821 24.6985 97.5085 24.6372C97.4471 24.5636 97.4165 24.4777 97.4165 24.3796C97.4165 24.257 97.4717 24.1527 97.5821 24.0669L100.084 21.6201C100.194 21.5097 100.299 21.4545 100.397 21.4545C100.495 21.4545 100.575 21.4913 100.636 21.5649C100.71 21.6385 100.746 21.7243 100.746 21.8224V23.2942H102.825C103.034 23.2942 103.205 23.3617 103.34 23.4966C103.475 23.6315 103.543 23.8032 103.543 24.0117C103.543 24.2079 103.475 24.3796 103.34 24.5268C103.205 24.6617 103.034 24.7292 102.825 24.7292H100.746V30.2851C100.746 30.7634 100.857 31.07 101.078 31.2049C101.311 31.3276 101.599 31.3889 101.942 31.3889C102.187 31.3889 102.433 31.3521 102.678 31.2785C102.727 31.2663 102.776 31.254 102.825 31.2417C102.887 31.2295 102.96 31.2233 103.046 31.2233C103.218 31.2233 103.371 31.2908 103.506 31.4257C103.641 31.5483 103.708 31.7017 103.708 31.8856C103.708 32.1677 103.567 32.3823 103.285 32.5295C102.807 32.7503 102.298 32.8607 101.758 32.8607Z" stroke="#0AB2BF" stroke-width="1.03722" mask="url(#path-1-outside-1_86_18624)"/>
<path d="M112.425 32.8607C111.751 32.8607 111.162 32.7012 110.659 32.3823C110.169 32.0635 109.789 31.6281 109.519 31.0762C109.261 30.5242 109.132 29.9171 109.132 29.2548V24.0301C109.132 23.7971 109.212 23.6008 109.372 23.4414C109.543 23.2819 109.746 23.2022 109.979 23.2022C110.212 23.2022 110.408 23.2819 110.567 23.4414C110.727 23.6008 110.807 23.7971 110.807 24.0301V29.0709C110.807 30.5672 111.481 31.3153 112.83 31.3153C113.443 31.3153 113.989 31.1559 114.468 30.837C114.958 30.5181 115.418 30.0888 115.847 29.5492V24.0301C115.847 23.7971 115.927 23.6008 116.086 23.4414C116.258 23.2819 116.461 23.2022 116.694 23.2022C116.927 23.2022 117.123 23.2819 117.282 23.4414C117.442 23.6008 117.521 23.7971 117.521 24.0301V31.9224C117.521 32.1554 117.442 32.3578 117.282 32.5295C117.123 32.689 116.927 32.7687 116.694 32.7687C116.461 32.7687 116.258 32.689 116.086 32.5295C115.927 32.3578 115.847 32.1554 115.847 31.9224V31.1681C115.381 31.6833 114.878 32.0941 114.339 32.4007C113.799 32.7074 113.161 32.8607 112.425 32.8607Z" stroke="#0AB2BF" stroke-width="1.03722" mask="url(#path-1-outside-1_86_18624)"/>
<path d="M124.942 32.7687C124.709 32.7687 124.513 32.689 124.354 32.5295C124.194 32.3701 124.114 32.1738 124.114 31.9408V24.0485C124.114 23.8155 124.194 23.6192 124.354 23.4598C124.513 23.2881 124.709 23.2022 124.942 23.2022C125.175 23.2022 125.372 23.2881 125.531 23.4598C125.703 23.6192 125.789 23.8155 125.789 24.0485V24.8396C126.647 23.6867 127.61 23.1102 128.677 23.1102H128.769C129.002 23.1102 129.192 23.19 129.339 23.3494C129.499 23.5088 129.578 23.7051 129.578 23.9381C129.578 24.1711 129.499 24.3612 129.339 24.5084C129.18 24.6556 128.977 24.7292 128.732 24.7292H128.64C128.051 24.7292 127.512 24.8763 127.021 25.1707C126.531 25.4528 126.12 25.8453 125.789 26.3481V31.9408C125.789 32.1738 125.703 32.3701 125.531 32.5295C125.372 32.689 125.175 32.7687 124.942 32.7687Z" stroke="#0AB2BF" stroke-width="1.03722" mask="url(#path-1-outside-1_86_18624)"/>
<path d="M138.762 32.8607C137.265 32.8607 136.094 32.4375 135.248 31.5913C134.414 30.7327 133.997 29.5308 133.997 27.9854C133.997 27.1147 134.156 26.3113 134.475 25.5754C134.794 24.8396 135.285 24.2447 135.947 23.7909C136.609 23.3371 137.425 23.1102 138.394 23.1102C139.301 23.1102 140.086 23.3249 140.748 23.7541C141.411 24.1711 141.914 24.7353 142.257 25.4467C142.6 26.1457 142.772 26.9123 142.772 27.7463C142.772 27.9793 142.692 28.1755 142.533 28.335C142.386 28.4944 142.183 28.5742 141.926 28.5742H135.689C135.787 29.4327 136.106 30.1011 136.646 30.5794C137.186 31.0578 137.94 31.2969 138.909 31.2969C139.424 31.2969 139.871 31.2479 140.252 31.1497C140.644 31.0516 141.024 30.9106 141.392 30.7266C141.49 30.6775 141.601 30.653 141.723 30.653C141.92 30.653 142.091 30.7205 142.239 30.8554C142.386 30.9903 142.459 31.162 142.459 31.3705C142.459 31.6403 142.3 31.8672 141.981 32.0512C141.503 32.321 141.031 32.5234 140.564 32.6583C140.098 32.7932 139.497 32.8607 138.762 32.8607ZM141.116 27.2128C141.08 26.6118 140.92 26.1089 140.638 25.7042C140.368 25.2995 140.031 25.0051 139.626 24.8212C139.221 24.6249 138.811 24.5268 138.394 24.5268C137.977 24.5268 137.566 24.6249 137.161 24.8212C136.756 25.0051 136.419 25.2995 136.149 25.7042C135.879 26.1089 135.726 26.6118 135.689 27.2128H141.116Z" stroke="#0AB2BF" stroke-width="1.03722" mask="url(#path-1-outside-1_86_18624)"/>
</svg>
