<svg width="400" height="400" viewBox="0 0 400 400" fill="none" xmlns="http://www.w3.org/2000/svg">
<path d="M207.319 197.457H207.242C203.316 199.197 199.713 201.596 196.583 204.55C196.331 204.763 196.095 204.995 195.875 205.242C195.757 205.366 195.649 205.5 195.554 205.643C194.803 206.657 194.373 207.874 194.318 209.137C194.263 210.401 194.587 211.652 195.247 212.727C195.907 213.802 196.873 214.653 198.02 215.168C199.166 215.682 200.439 215.838 201.675 215.613C209.787 214.9 217.822 213.238 225.935 212.323C234.402 211.364 242.924 210.896 250.528 216.026C262.503 224.1 262.558 233.87 250.672 241.922C249.147 242.966 247.549 243.898 245.89 244.71C238.929 248.055 231.812 251.189 224.972 254.825C217.015 259.052 208.791 263.055 201.597 268.42C199.533 269.867 197.829 271.776 196.617 273.996C195.828 275.349 195.404 276.887 195.388 278.457C195.388 286.899 208.149 293.758 223.899 293.758C224.607 293.758 225.304 293.758 225.99 293.758H226.19C227.164 293.691 228.127 293.601 229.089 293.501L230.44 293.345C255.42 290.412 273.604 277.732 286 255.639C291.366 246.067 292.807 234.761 290.013 224.134C287.219 213.507 280.413 204.402 271.047 198.762C251.933 187.052 227.175 186.84 207.319 197.457Z" fill="#0AB2BF"/>
<path d="M299.6 303.627C299.601 301.994 299.175 300.388 298.363 298.97C297.552 297.551 296.385 296.368 294.975 295.537C293.566 294.706 291.964 294.257 290.327 294.233C288.691 294.208 287.076 294.61 285.643 295.399C225.377 319.329 195.217 299.934 192.983 298.404C188.877 295.543 185.085 292.257 181.671 288.602C178.926 285.632 176.512 282.375 174.469 278.888C112.926 186.251 146.265 114.263 146.265 114.263C147.579 111.049 149.163 107.952 150.999 105.003C157.733 94.2473 167.857 89.346 177.67 90.7876C194.773 91.4751 208.653 109.018 210.142 131.284C210.053 140.887 205.508 160.026 177.148 183.978C175.806 185.174 174.793 186.692 174.204 188.388C173.614 190.083 173.469 191.901 173.78 193.669C174.092 195.437 174.85 197.096 175.984 198.489C177.118 199.883 178.589 200.964 180.259 201.632L180.659 201.754C181.807 202.165 183.018 202.375 184.238 202.375C184.951 202.378 185.662 202.307 186.36 202.164C189.273 201.507 191.971 200.126 194.206 198.15C209.442 186.329 219.699 170.572 228.845 153.972C238.246 136.917 239.513 118.842 235.035 100.269C228.245 72.0696 203.63 57.3658 175.859 65.006C162.112 68.7762 150.732 76.8378 141.409 87.4276C107.581 125.961 96.6238 171.348 102.514 221.348C103.56 230.313 105.419 239.165 108.07 247.795C108.392 248.826 108.715 249.846 109.059 250.866C109.459 252.053 109.87 253.239 110.293 254.404C111.059 256.743 130.04 313.906 164.746 328.233L165.468 328.632C166.054 328.977 166.663 329.281 167.29 329.542C181.859 336.45 199.973 337.038 217.298 334.909C223.555 334.199 296.389 325.461 299.434 305.568C299.434 305.423 299.489 305.279 299.511 305.135C299.582 304.636 299.612 304.131 299.6 303.627Z" fill="#0AB2BF"/>
</svg>
